<svg enable-background="new 0 0 100 100" viewBox="0 0 100 100" xml:space="preserve" xmlns="http://www.w3.org/2000/svg"><path d="m-192 0h185v99h-185z"/><path d="m0-36h100v30h-100z"/><text font-family="'Helvetica'" font-size="2.4" transform="translate(66 -19.5)">http://thenounproject.com</text><text transform="translate(7.166 -24.5)"><tspan font-family="'Helvetica-Bold'" font-size="6.1578" x="0" y="0">The Noun Project</tspan><tspan font-family="'Helvetica-Bold'" font-size="4" x="1.12" y="4.8">Icon Template</tspan></text><text font-family="'Helvetica-Bold'" font-size="6.1578" transform="translate(-178.5 10.5)">Reminders</text><path d="m8-14.5h10" stroke="#fff" stroke-miterlimit="10"/><path d="m-179 16.5h17" stroke="#fff" stroke-miterlimit="10"/><path d="m-170.802 31.318h8.721v8.642h-8.721z"/><path d="m-164.455 42.312h4.747v-4.703h-4.747zm5.189.437h-5.63v-5.579h5.63zm-6.955 1.313h8.279v-8.203h-8.279zm8.721.438h-9.163v-9.079h9.163z"/><path d="m-166.149 44.133-.143-.142 8.279-8.204.142.142z"/><path d="m-179 58h35v32.5h-35z" fill="none"/><text transform="translate(-179 60.1572)"><tspan font-family="'Helvetica-Bold'" font-size="3" x="0" y="0">Strokes</tspan><tspan font-family="'Helvetica'" font-size="2.4" x="0" y="5">Try to keep strokes at 4px</tspan><tspan font-family="'Helvetica'" font-size="2.4" x="0" y="10">Minimum stroke weight is 2px</tspan><tspan font-family="'Helvetica'" font-size="2.4" x="0" y="14.5">For thicker strokes use even </tspan><tspan font-family="'Helvetica'" font-size="2.4" x="0" y="17.5">numbers: 6px, 8px etc.</tspan><tspan font-family="'Helvetica-Bold'" font-size="2.4" x="0" y="22">Remember to expand strokes </tspan><tspan font-family="'Helvetica-Bold'" font-size="2.4" x="0" y="25">before saving as an SVG </tspan></text><path d="m-136.5 58h35v32.5h-35z" fill="none"/><text transform="translate(-136.5 60.1572)"><tspan font-family="'Helvetica-Bold'" font-size="3" x="0" y="0">Size</tspan><tspan font-family="'Helvetica'" font-size="2.4" x="0" y="5">Cannot be wider or taller than </tspan><tspan font-family="'Helvetica'" font-size="2.4" x="0" y="8.5">100px (artboard size)</tspan><tspan font-family="'Helvetica'" font-size="2.4" x="0" y="13.5">Scale your icon to fill as much of </tspan><tspan font-family="'Helvetica'" font-size="2.4" x="0" y="16.5">the artboard as possible</tspan></text><path d="m-94 58h35v32.5h-35z" fill="none"/><text transform="translate(-94 60.1572)"><tspan font-family="'Helvetica-Bold'" font-size="3" x="0" y="0">Ungroup</tspan><tspan font-family="'Helvetica'" font-size="2.4" x="0" y="5">If your design has more than one </tspan><tspan font-family="'Helvetica'" font-size="2.4" x="0" y="8">shape, make sure to ungroup</tspan></text><path d="m-50 58h35v32.5h-35z" fill="none"/><text transform="translate(-50 60.1572)"><tspan font-family="'Helvetica-Bold'" font-size="3" x="0" y="0">Save as</tspan><tspan font-family="'Helvetica'" font-size="2.4" x="0" y="5">Save as .SVG and make sure </tspan><tspan font-family="'Helvetica'" font-size="2.4" x="0" y="8">“Use Artboards” is checked</tspan></text><text font-family="'Helvetica'" font-size="2.5731" transform="matrix(1.0074 0 0 1 -125.542 30.5933)">100px</text><text font-family="'Helvetica-Bold'" font-size="5.1462" transform="matrix(1.0074 0 0 1 -41 39)">.SVG</text><path d="m-126.514 34.815h10.261v10.185h-10.261z"/><path d="m-126.477 31.766h.522v2.337h-.522z"/><path d="m-116.812 31.766h.523v2.337h-.523z"/><path d="m-127 32.337h11.233v.572h-11.233z"/><path d="m-83.805 33.844h10.305v10.156h-10.305z"/><path d="m-76.809 28.707h3.308v3.261h-3.308z"/><g stroke="#fff" stroke-miterlimit="10"><path d="m-178.5 22.5h30v30h-30z"/><path d="m-136.5 22.5h30v30h-30z"/><path d="m-93.5 22.5h30v30h-30z"/><path d="m-49.5 22.5h30v30h-30z"/></g><path d="m81.405 76.481-19.392-19.392c3.19-4.216 5.085-9.467 5.085-15.162 0-13.891-11.26-25.151-25.151-25.151s-25.151 11.26-25.151 25.151 11.26 25.151 25.151 25.151c5.675 0 10.91-1.881 15.118-5.051l19.397 19.396c1.64 1.64 4.074 1.861 5.439.497 1.366-1.364 1.143-3.8-.496-5.439zm-39.458-15.636c-10.446 0-18.916-8.471-18.916-18.917 0-10.448 8.47-18.917 18.916-18.917s18.917 8.47 18.917 18.917c-.001 10.446-8.471 18.917-18.917 18.917z"/></svg>